<svg width="35" height="35" viewBox="0 0 35 35" fill="none" xmlns="http://www.w3.org/2000/svg">
<path d="M10.9375 17.5C12.0978 17.5 13.2106 17.0391 14.0311 16.2186C14.8516 15.3981 15.3125 14.2853 15.3125 13.125C15.3125 11.9647 14.8516 10.8519 14.0311 10.0314C13.2106 9.21094 12.0978 8.75 10.9375 8.75H4.375V26.25H10.9375C12.0978 26.25 13.2106 25.7891 14.0311 24.9686C14.8516 24.1481 15.3125 23.0353 15.3125 21.875C15.3125 20.7147 14.8516 19.6019 14.0311 18.7814C13.2106 17.9609 12.0978 17.5 10.9375 17.5ZM10.9375 17.5H4.375M20.4167 18.9583H30.625C30.625 17.6046 30.0872 16.3064 29.13 15.3491C28.1728 14.3919 26.8745 13.8542 25.5208 13.8542C24.1671 13.8542 22.8689 14.3919 21.9116 15.3491C20.9544 16.3064 20.4167 17.6046 20.4167 18.9583ZM20.4167 18.9583V21.875C20.5671 22.9668 21.0669 23.9806 21.8413 24.7648C22.6157 25.549 23.6231 26.0615 24.7129 26.2256C25.8028 26.3897 26.9164 26.1967 27.8875 25.6754C28.8585 25.154 29.6347 24.3324 30.1 23.3333M23.3333 8.75H27.7083" stroke="white" stroke-linecap="round" stroke-linejoin="round"/>
</svg>
