<svg width="126" height="200" viewBox="0 0 126 200" fill="none" xmlns="http://www.w3.org/2000/svg">
<rect x="0.437195" width="124.95" height="199.287" rx="62.4748" fill="#6D5486" fill-opacity="0.8"/>
<rect x="28.9067" y="65" width="68.8014" height="68.8014" rx="34.4007" fill="black"/>
<path d="M63.3074 70.7339C59.5427 70.7339 55.815 71.4754 52.3369 72.916C48.8588 74.3567 45.6986 76.4683 43.0366 79.1303C37.6604 84.5065 34.6401 91.7981 34.6401 99.4011C34.6401 112.072 42.8676 122.822 54.2485 126.635C55.6819 126.864 56.1406 125.976 56.1406 125.202V120.357C48.1997 122.077 46.5084 116.515 46.5084 116.515C45.1897 113.19 43.3263 112.301 43.3263 112.301C40.7176 110.524 43.527 110.581 43.527 110.581C46.3937 110.782 47.9131 113.534 47.9131 113.534C50.4071 117.891 54.6212 116.601 56.2552 115.913C56.5132 114.05 57.2586 112.789 58.0613 112.072C51.6971 111.355 45.0177 108.89 45.0177 97.9678C45.0177 94.7857 46.107 92.2343 47.9704 90.1989C47.6837 89.4823 46.6804 86.5009 48.2571 82.6308C48.2571 82.6308 50.6651 81.8568 56.1406 85.5548C58.4053 84.9242 60.8706 84.6088 63.3074 84.6088C65.7441 84.6088 68.2095 84.9242 70.4742 85.5548C75.9496 81.8568 78.3577 82.6308 78.3577 82.6308C79.9344 86.5009 78.931 89.4823 78.6443 90.1989C80.5077 92.2343 81.597 94.7857 81.597 97.9678C81.597 108.919 74.8889 111.327 68.4961 112.043C69.5282 112.932 70.4742 114.681 70.4742 117.347V125.202C70.4742 125.976 70.9328 126.893 72.3949 126.635C83.7758 122.794 91.9746 112.072 91.9746 99.4011C91.9746 95.6365 91.2331 91.9087 89.7924 88.4306C88.3518 84.9526 86.2402 81.7923 83.5782 79.1303C80.9162 76.4683 77.7559 74.3567 74.2778 72.916C70.7998 71.4754 67.072 70.7339 63.3074 70.7339Z" fill="white"/>
</svg>
